<svg xmlns="http://www.w3.org/2000/svg" xmlns:xlink="http://www.w3.org/1999/xlink" contentStyleType="text/css" data-diagram-type="SEQUENCE" height="429px" preserveAspectRatio="none" style="width:748px;height:429px;background:#FFFFFF;" version="1.1" viewBox="0 0 748 429" width="748px" zoomAndPan="magnify"><defs/><g><g><title>Data Manager .Baker.</title><rect fill="#000000" fill-opacity="0.00000" height="267.1953" width="8" x="81.6392" y="81.2969"/><line style="stroke:#181818;stroke-width:0.5;stroke-dasharray:5,5;" x1="85" x2="85" y1="81.2969" y2="348.4922"/></g><g><title>REMS</title><rect fill="#000000" fill-opacity="0.00000" height="267.1953" width="8" x="199.0479" y="81.2969"/><line style="stroke:#181818;stroke-width:0.5;stroke-dasharray:5,5;" x1="202.2783" x2="202.2783" y1="81.2969" y2="348.4922"/></g><g><title>Auth0</title><rect fill="#000000" fill-opacity="0.00000" height="267.1953" width="8" x="357.3579" y="81.2969"/><line style="stroke:#181818;stroke-width:0.5;stroke-dasharray:5,5;" x1="360.498" x2="360.498" y1="81.2969" y2="348.4922"/></g><g><title>Gen3</title><rect fill="#000000" fill-opacity="0.00000" height="267.1953" width="8" x="498.1294" y="81.2969"/><line style="stroke:#181818;stroke-width:0.5;stroke-dasharray:5,5;" x1="501.5083" x2="501.5083" y1="81.2969" y2="348.4922"/></g><g><title>Data Applicant</title><rect fill="#000000" fill-opacity="0.00000" height="267.1953" width="8" x="688.6475" y="81.2969"/><line style="stroke:#181818;stroke-width:0.5;stroke-dasharray:5,5;" x1="691.8242" x2="691.8242" y1="81.2969" y2="348.4922"/></g><g class="participant participant-head" data-participant="DataManager"><text fill="#000000" font-family="sans-serif" font-size="14" lengthAdjust="spacing" textLength="155.2783" x="5" y="77.9951">Data Manager (Baker)</text><ellipse cx="85.6392" cy="13.5" fill="#E2E2F0" rx="8" ry="8" style="stroke:#181818;stroke-width:0.5;"/><path d="M85.6392,21.5 L85.6392,48.5 M72.6392,29.5 L98.6392,29.5 M85.6392,48.5 L72.6392,63.5 M85.6392,48.5 L98.6392,63.5" fill="none" style="stroke:#181818;stroke-width:0.5;"/></g><g class="participant participant-tail" data-participant="DataManager"><text fill="#000000" font-family="sans-serif" font-size="14" lengthAdjust="spacing" textLength="155.2783" x="5" y="360.4873">Data Manager (Baker)</text><ellipse cx="85.6392" cy="372.2891" fill="#E2E2F0" rx="8" ry="8" style="stroke:#181818;stroke-width:0.5;"/><path d="M85.6392,380.2891 L85.6392,407.2891 M72.6392,388.2891 L98.6392,388.2891 M85.6392,407.2891 L72.6392,422.2891 M85.6392,407.2891 L98.6392,422.2891" fill="none" style="stroke:#181818;stroke-width:0.5;"/></g><g class="participant participant-head" data-participant="REMS"><rect fill="#E2E2F0" height="30.2969" rx="2.5" ry="2.5" style="stroke:#181818;stroke-width:0.5;" width="53.5391" x="176.2783" y="50"/><text fill="#000000" font-family="sans-serif" font-size="14" lengthAdjust="spacing" textLength="39.5391" x="183.2783" y="69.9951">REMS</text></g><g class="participant participant-tail" data-participant="REMS"><rect fill="#E2E2F0" height="30.2969" rx="2.5" ry="2.5" style="stroke:#181818;stroke-width:0.5;" width="53.5391" x="176.2783" y="347.4922"/><text fill="#000000" font-family="sans-serif" font-size="14" lengthAdjust="spacing" textLength="39.5391" x="183.2783" y="367.4873">REMS</text></g><g class="participant participant-head" data-participant="Auth0"><rect fill="#E2E2F0" height="30.2969" rx="2.5" ry="2.5" style="stroke:#181818;stroke-width:0.5;" width="55.7197" x="333.498" y="50"/><text fill="#000000" font-family="sans-serif" font-size="14" lengthAdjust="spacing" textLength="41.7197" x="340.498" y="69.9951">Auth0</text></g><g class="participant participant-tail" data-participant="Auth0"><rect fill="#E2E2F0" height="30.2969" rx="2.5" ry="2.5" style="stroke:#181818;stroke-width:0.5;" width="55.7197" x="333.498" y="347.4922"/><text fill="#000000" font-family="sans-serif" font-size="14" lengthAdjust="spacing" textLength="41.7197" x="340.498" y="367.4873">Auth0</text></g><g class="participant participant-head" data-participant="Gen3"><rect fill="#E2E2F0" height="30.2969" rx="2.5" ry="2.5" style="stroke:#181818;stroke-width:0.5;" width="51.2422" x="476.5083" y="50"/><text fill="#000000" font-family="sans-serif" font-size="14" lengthAdjust="spacing" textLength="37.2422" x="483.5083" y="69.9951">Gen3</text></g><g class="participant participant-tail" data-participant="Gen3"><rect fill="#E2E2F0" height="30.2969" rx="2.5" ry="2.5" style="stroke:#181818;stroke-width:0.5;" width="51.2422" x="476.5083" y="347.4922"/><text fill="#000000" font-family="sans-serif" font-size="14" lengthAdjust="spacing" textLength="37.2422" x="483.5083" y="367.4873">Gen3</text></g><g class="participant participant-head" data-participant="Applicant"><text fill="#000000" font-family="sans-serif" font-size="14" lengthAdjust="spacing" textLength="103.6465" x="637.8242" y="77.9951">Data Applicant</text><ellipse cx="692.6475" cy="13.5" fill="#E2E2F0" rx="8" ry="8" style="stroke:#181818;stroke-width:0.5;"/><path d="M692.6475,21.5 L692.6475,48.5 M679.6475,29.5 L705.6475,29.5 M692.6475,48.5 L679.6475,63.5 M692.6475,48.5 L705.6475,63.5" fill="none" style="stroke:#181818;stroke-width:0.5;"/></g><g class="participant participant-tail" data-participant="Applicant"><text fill="#000000" font-family="sans-serif" font-size="14" lengthAdjust="spacing" textLength="103.6465" x="637.8242" y="360.4873">Data Applicant</text><ellipse cx="692.6475" cy="372.2891" fill="#E2E2F0" rx="8" ry="8" style="stroke:#181818;stroke-width:0.5;"/><path d="M692.6475,380.2891 L692.6475,407.2891 M679.6475,388.2891 L705.6475,388.2891 M692.6475,407.2891 L679.6475,422.2891 M692.6475,407.2891 L705.6475,422.2891" fill="none" style="stroke:#181818;stroke-width:0.5;"/></g><g class="message" data-participant-1="DataManager" data-participant-2="REMS"><polygon fill="#181818" points="191.0479,108.4297,201.0479,112.4297,191.0479,116.4297,195.0479,112.4297" style="stroke:#181818;stroke-width:1;"/><line style="stroke:#181818;stroke-width:1;" x1="85.6392" x2="197.0479" y1="112.4297" y2="112.4297"/><text fill="#000000" font-family="sans-serif" font-size="13" lengthAdjust="spacing" textLength="72.5981" x="92.6392" y="107.3638">Green light</text></g><g class="message" data-participant-1="REMS" data-participant-2="REMS"><line style="stroke:#181818;stroke-width:1;" x1="203.0479" x2="245.0479" y1="156.6953" y2="156.6953"/><line style="stroke:#181818;stroke-width:1;" x1="245.0479" x2="245.0479" y1="156.6953" y2="169.6953"/><line style="stroke:#181818;stroke-width:1;" x1="204.0479" x2="245.0479" y1="169.6953" y2="169.6953"/><polygon fill="#181818" points="214.0479,165.6953,204.0479,169.6953,214.0479,173.6953,210.0479,169.6953" style="stroke:#181818;stroke-width:1;"/><text fill="#000000" font-family="sans-serif" font-size="13" lengthAdjust="spacing" textLength="118.6123" x="210.0479" y="136.4966">user_id:dataset_id</text><text fill="#000000" font-family="sans-serif" font-size="13" lengthAdjust="spacing" textLength="99.6519" x="210.0479" y="151.6294">entitlement set</text></g><g class="message" data-participant-1="REMS" data-participant-2="Auth0"><polygon fill="#181818" points="349.3579,194.8281,359.3579,198.8281,349.3579,202.8281,353.3579,198.8281" style="stroke:#181818;stroke-width:1;"/><line style="stroke:#181818;stroke-width:1;" x1="203.0479" x2="355.3579" y1="198.8281" y2="198.8281"/><text fill="#000000" font-family="sans-serif" font-size="13" lengthAdjust="spacing" textLength="134.3101" x="210.0479" y="193.7622">entitlements pushed</text></g><g class="message" data-participant-1="REMS" data-participant-2="Applicant"><polygon fill="#181818" points="680.6475,223.9609,690.6475,227.9609,680.6475,231.9609,684.6475,227.9609" style="stroke:#181818;stroke-width:1;"/><line style="stroke:#181818;stroke-width:1;" x1="203.0479" x2="686.6475" y1="227.9609" y2="227.9609"/><text fill="#000000" font-family="sans-serif" font-size="13" lengthAdjust="spacing" textLength="145.3296" x="210.0479" y="222.895">email notification sent</text></g><g class="message" data-participant-1="Applicant" data-participant-2="Auth0"><polygon fill="#181818" points="372.3579,253.0938,362.3579,257.0938,372.3579,261.0938,368.3579,257.0938" style="stroke:#181818;stroke-width:1;"/><line style="stroke:#181818;stroke-width:1;" x1="366.3579" x2="691.6475" y1="257.0938" y2="257.0938"/><text fill="#000000" font-family="sans-serif" font-size="13" lengthAdjust="spacing" textLength="160.6973" x="378.3579" y="252.0278">logs in to data commons</text></g><g class="message" data-participant-1="Auth0" data-participant-2="Gen3"><polygon fill="#181818" points="490.1294,297.3594,500.1294,301.3594,490.1294,305.3594,494.1294,301.3594" style="stroke:#181818;stroke-width:1;"/><line style="stroke:#181818;stroke-width:1;" x1="361.3579" x2="496.1294" y1="301.3594" y2="301.3594"/><text fill="#000000" font-family="sans-serif" font-size="13" lengthAdjust="spacing" textLength="82.4243" x="368.3579" y="281.1606">entitlements</text><text fill="#000000" font-family="sans-serif" font-size="13" lengthAdjust="spacing" textLength="116.7715" x="368.3579" y="296.2935">from OIDC groups</text></g><g class="message" data-participant-1="Gen3" data-participant-2="Applicant"><polygon fill="#181818" points="680.6475,326.4922,690.6475,330.4922,680.6475,334.4922,684.6475,330.4922" style="stroke:#181818;stroke-width:1;"/><line style="stroke:#181818;stroke-width:1;" x1="502.1294" x2="686.6475" y1="330.4922" y2="330.4922"/><text fill="#000000" font-family="sans-serif" font-size="13" lengthAdjust="spacing" textLength="166.5181" x="509.1294" y="325.4263">displays appropriate data</text></g><!--SRC=[NP0nQyCm48Lt_Oh3KpeK2jqo5DAcX0uXqAw1SjWN-uXq9wJpq7zVMQMsaqdIT-_UUmXRqmHxD3oYO4y9C4CplU4VR5xnIkcXSH6JSSiHnU3p_VXr0tQZ3Kytv43oxB3wxsBqt4vmTfzHuzmw_l6bUiCM3eb8m7C_cAje6OsPqZTtswuiPh9oFGk9iNaAvOJ2vfLQhEoivXdYc0Vg5itSh-W2iWTHuqj1nYh5JimjcfMfrpu32vZ2r0LQ3K4bkxzv4KwVS1T-balI0AUF_HlqISUONLNTzUWuHuy_6J36f34n6jMGNm00]--></g></svg>