<svg xmlns="http://www.w3.org/2000/svg" xmlns:xlink="http://www.w3.org/1999/xlink" contentStyleType="text/css" data-diagram-type="DESCRIPTION" height="577px" preserveAspectRatio="none" style="width:647px;height:577px;background:#FFFFFF;" version="1.1" viewBox="0 0 647 577" width="647px" zoomAndPan="magnify"><defs/><g><!--cluster REMS--><g class="cluster" data-entity="REMS" data-source-line="25" data-uid="ent0005" id="cluster_REMS"><polygon fill="#F8F8F8" points="169,138.79,179,128.79,375,128.79,375,360.68,365,370.68,169,370.68,169,138.79" style="stroke:#A9A9A9;stroke-width:1;"/><line style="stroke:#A9A9A9;stroke-width:1;" x1="365" x2="375" y1="138.79" y2="128.79"/><line style="stroke:#A9A9A9;stroke-width:1;" x1="169" x2="365" y1="138.79" y2="138.79"/><line style="stroke:#A9A9A9;stroke-width:1;" x1="365" x2="365" y1="138.79" y2="370.68"/><text fill="#000000" font-family="sans-serif" font-size="14" font-weight="bold" lengthAdjust="spacing" textLength="44.3584" x="245.8208" y="154.7851">REMS</text></g><!--cluster Auth0--><g class="cluster" data-entity="Auth0" data-source-line="31" data-uid="ent0008" id="cluster_Auth0"><polygon fill="#F8F8F8" points="203,452.68,213,442.68,349,442.68,349,550.98,339,560.98,203,560.98,203,452.68" style="stroke:#A9A9A9;stroke-width:1;"/><line style="stroke:#A9A9A9;stroke-width:1;" x1="339" x2="349" y1="452.68" y2="442.68"/><line style="stroke:#A9A9A9;stroke-width:1;" x1="203" x2="339" y1="452.68" y2="452.68"/><line style="stroke:#A9A9A9;stroke-width:1;" x1="339" x2="339" y1="452.68" y2="560.98"/><text fill="#000000" font-family="sans-serif" font-size="14" font-weight="bold" lengthAdjust="spacing" textLength="47.2021" x="248.3989" y="468.6751">Auth0</text></g><!--cluster Gen3--><g class="cluster" data-entity="Gen3" data-source-line="35" data-uid="ent0010" id="cluster_Gen3"><polygon fill="#F8F8F8" points="16,146.94,26,136.94,144,136.94,144,360.68,134,370.68,16,370.68,16,146.94" style="stroke:#A9A9A9;stroke-width:1;"/><line style="stroke:#A9A9A9;stroke-width:1;" x1="134" x2="144" y1="146.94" y2="136.94"/><line style="stroke:#A9A9A9;stroke-width:1;" x1="16" x2="134" y1="146.94" y2="146.94"/><line style="stroke:#A9A9A9;stroke-width:1;" x1="134" x2="134" y1="146.94" y2="370.68"/><text fill="#000000" font-family="sans-serif" font-size="14" font-weight="bold" lengthAdjust="spacing" textLength="40.6943" x="55.6528" y="162.9351">Gen3</text></g><!--entity WebApp--><g class="entity" data-entity="WebApp" data-source-line="26" data-uid="ent0006" id="entity_WebApp"><rect fill="#008292" height="62.5938" rx="2.5" ry="2.5" style="stroke:#A9A9A9;stroke-width:0.5;" width="173.9883" x="185.01" y="168.79"/><rect fill="#008292" height="10" style="stroke:#A9A9A9;stroke-width:0.5;" width="15" x="338.9983" y="173.79"/><rect fill="#008292" height="2" style="stroke:#A9A9A9;stroke-width:0.5;" width="4" x="336.9983" y="175.79"/><rect fill="#008292" height="2" style="stroke:#A9A9A9;stroke-width:0.5;" width="4" x="336.9983" y="179.79"/><text fill="#D3D3D3" font-family="sans-serif" font-size="14" font-style="italic" lengthAdjust="spacing" textLength="131.9883" x="201.01" y="201.7851">&#171;Single-page App&#187;</text><text fill="#FFFFFF" font-family="sans-serif" font-size="14" lengthAdjust="spacing" textLength="58.6934" x="237.6575" y="218.082">WebApp</text></g><!--entity API--><g class="entity" data-entity="API" data-source-line="27" data-uid="ent0007" id="entity_API"><rect fill="#008292" height="46.2969" rx="2.5" ry="2.5" style="stroke:#A9A9A9;stroke-width:0.5;" width="62.1484" x="296.93" y="308.39"/><rect fill="#008292" height="10" style="stroke:#A9A9A9;stroke-width:0.5;" width="15" x="339.0784" y="313.39"/><rect fill="#008292" height="2" style="stroke:#A9A9A9;stroke-width:0.5;" width="4" x="337.0784" y="315.39"/><rect fill="#008292" height="2" style="stroke:#A9A9A9;stroke-width:0.5;" width="4" x="337.0784" y="319.39"/><text fill="#FFFFFF" font-family="sans-serif" font-size="14" lengthAdjust="spacing" textLength="22.1484" x="311.93" y="341.3851">API</text></g><!--entity RBAC--><g class="entity" data-entity="RBAC" data-source-line="32" data-uid="ent0009" id="entity_RBAC"><rect fill="#008292" height="46.2969" rx="2.5" ry="2.5" style="stroke:#A9A9A9;stroke-width:0.5;" width="78.6846" x="246.66" y="490.68"/><rect fill="#008292" height="10" style="stroke:#A9A9A9;stroke-width:0.5;" width="15" x="305.3446" y="495.68"/><rect fill="#008292" height="2" style="stroke:#A9A9A9;stroke-width:0.5;" width="4" x="303.3446" y="497.68"/><rect fill="#008292" height="2" style="stroke:#A9A9A9;stroke-width:0.5;" width="4" x="303.3446" y="501.68"/><text fill="#FFFFFF" font-family="sans-serif" font-size="14" lengthAdjust="spacing" textLength="38.6846" x="261.66" y="523.6751">RBAC</text></g><!--entity Portal--><g class="entity" data-entity="Portal" data-source-line="36" data-uid="ent0011" id="entity_Portal"><rect fill="#008292" height="46.2969" rx="2.5" ry="2.5" style="stroke:#A9A9A9;stroke-width:0.5;" width="95.7402" x="32.13" y="176.94"/><rect fill="#008292" height="10" style="stroke:#A9A9A9;stroke-width:0.5;" width="15" x="107.8702" y="181.94"/><rect fill="#008292" height="2" style="stroke:#A9A9A9;stroke-width:0.5;" width="4" x="105.8702" y="183.94"/><rect fill="#008292" height="2" style="stroke:#A9A9A9;stroke-width:0.5;" width="4" x="105.8702" y="187.94"/><text fill="#FFFFFF" font-family="sans-serif" font-size="14" lengthAdjust="spacing" textLength="55.7402" x="47.13" y="209.9351">portal/ff</text></g><!--entity Fence--><g class="entity" data-entity="Fence" data-source-line="37" data-uid="ent0012" id="entity_Fence"><rect fill="#008292" height="46.2969" rx="2.5" ry="2.5" style="stroke:#A9A9A9;stroke-width:0.5;" width="78.7256" x="43.64" y="308.39"/><rect fill="#008292" height="10" style="stroke:#A9A9A9;stroke-width:0.5;" width="15" x="102.3656" y="313.39"/><rect fill="#008292" height="2" style="stroke:#A9A9A9;stroke-width:0.5;" width="4" x="100.3656" y="315.39"/><rect fill="#008292" height="2" style="stroke:#A9A9A9;stroke-width:0.5;" width="4" x="100.3656" y="319.39"/><text fill="#FFFFFF" font-family="sans-serif" font-size="14" lengthAdjust="spacing" textLength="38.7256" x="58.64" y="341.3851">fence</text></g><!--entity EmailServer--><g class="entity" data-entity="EmailServer" data-source-line="43" data-uid="ent0014" id="entity_EmailServer"><polygon fill="#F8F8F8" points="389.62,492.53,399.62,482.53,514.372,482.53,514.372,535.1238,504.372,545.1238,389.62,545.1238,389.62,492.53" style="stroke:#A9A9A9;stroke-width:0.5;"/><line style="stroke:#A9A9A9;stroke-width:0.5;" x1="504.372" x2="514.372" y1="492.53" y2="482.53"/><line style="stroke:#A9A9A9;stroke-width:0.5;" x1="389.62" x2="504.372" y1="492.53" y2="492.53"/><line style="stroke:#A9A9A9;stroke-width:0.5;" x1="504.372" x2="504.372" y1="492.53" y2="545.1238"/><text fill="#000000" font-family="sans-serif" font-size="14" font-style="italic" lengthAdjust="spacing" textLength="55.0908" x="419.4506" y="515.5251">&#171;SMTP&#187;</text><text fill="#000000" font-family="sans-serif" font-size="14" lengthAdjust="spacing" textLength="84.752" x="404.62" y="531.822">EmailServer</text></g><!--entity Applicant--><g class="entity" data-entity="Applicant" data-source-line="21" data-uid="ent0002" id="entity_Applicant"><ellipse cx="135.0032" cy="14" fill="#D3D3D3" rx="8" ry="8" style="stroke:#000000;stroke-width:0.5;"/><path d="M135.0032,22 L135.0032,49 M122.0032,30 L148.0032,30 M135.0032,49 L122.0032,64 M135.0032,49 L148.0032,64" fill="none" style="stroke:#000000;stroke-width:0.5;"/><text fill="#000000" font-family="sans-serif" font-size="14" lengthAdjust="spacing" textLength="103.6465" x="83.18" y="78.4951">Data Applicant</text></g><!--entity Approver--><g class="entity" data-entity="Approver" data-source-line="22" data-uid="ent0003" id="entity_Approver"><ellipse cx="272.0031" cy="14" fill="#D3D3D3" rx="8" ry="8" style="stroke:#000000;stroke-width:0.5;"/><path d="M272.0031,22 L272.0031,49 M259.0031,30 L285.0031,30 M272.0031,49 L259.0031,64 M272.0031,49 L285.0031,64" fill="none" style="stroke:#000000;stroke-width:0.5;"/><text fill="#000000" font-family="sans-serif" font-size="14" lengthAdjust="spacing" textLength="64.3262" x="239.84" y="78.4951">Approver</text></g><!--entity APIUser--><g class="entity" data-entity="APIUser" data-source-line="23" data-uid="ent0004" id="entity_APIUser"><ellipse cx="428.9993" cy="14" fill="#D3D3D3" rx="8" ry="8" style="stroke:#000000;stroke-width:0.5;"/><path d="M428.9993,22 L428.9993,49 M415.9993,30 L441.9993,30 M428.9993,49 L415.9993,64 M428.9993,49 L441.9993,64" fill="none" style="stroke:#000000;stroke-width:0.5;"/><text fill="#000000" font-family="sans-serif" font-size="14" lengthAdjust="spacing" textLength="54.0586" x="401.97" y="78.4951">APIUser</text></g><!--entity Postgres--><g class="entity" data-entity="Postgres" data-source-line="41" data-uid="ent0013" id="entity_Postgres"><path d="M549.83,501.18 C549.83,491.18 590.0004,491.18 590.0004,491.18 C590.0004,491.18 630.1708,491.18 630.1708,501.18 L630.1708,526.4769 C630.1708,536.4769 590.0004,536.4769 590.0004,536.4769 C590.0004,536.4769 549.83,536.4769 549.83,526.4769 L549.83,501.18" fill="#008292" style="stroke:#181818;stroke-width:0.5;"/><path d="M549.83,501.18 C549.83,511.18 590.0004,511.18 590.0004,511.18 C590.0004,511.18 630.1708,511.18 630.1708,501.18" fill="none" style="stroke:#181818;stroke-width:0.5;"/><text fill="#FFFFFF" font-family="sans-serif" font-size="14" lengthAdjust="spacing" textLength="60.3408" x="559.83" y="528.1751">Postgres</text></g><!--link Applicant to WebApp--><g class="link" data-entity-1="Applicant" data-entity-2="WebApp" data-source-line="46" data-uid="lnk15" id="link_Applicant_WebApp"><path d="M168.16,82.03 C191.76,108.63 219.0896,139.4304 241.1296,164.2904" fill="none" id="Applicant-to-WebApp" style="stroke:#000000;stroke-width:1;"/><polygon fill="#000000" points="245.11,168.78,242.1326,159.392,241.793,165.0386,236.1464,164.6991,245.11,168.78" style="stroke:#000000;stroke-width:1;"/></g><!--link Applicant to Portal--><g class="link" data-entity-1="Applicant" data-entity-2="Portal" data-source-line="47" data-uid="lnk16" id="link_Applicant_Portal"><path d="M121.69,82.03 C111.13,111.67 98.7534,146.4379 89.9334,171.1979" fill="none" id="Applicant-to-Portal" style="stroke:#000000;stroke-width:1;"/><polygon fill="#000000" points="87.92,176.85,94.7082,169.7141,89.5978,172.1399,87.172,167.0296,87.92,176.85" style="stroke:#000000;stroke-width:1;"/></g><!--link Approver to WebApp--><g class="link" data-entity-1="Approver" data-entity-2="WebApp" data-source-line="48" data-uid="lnk17" id="link_Approver_WebApp"><path d="M272,82.03 C272,108.63 272,137.92 272,162.78" fill="none" id="Approver-to-WebApp" style="stroke:#000000;stroke-width:1;"/><polygon fill="#000000" points="272,168.78,276,159.78,272,163.78,268,159.78,272,168.78" style="stroke:#000000;stroke-width:1;"/></g><!--link APIUser to API--><g class="link" data-entity-1="APIUser" data-entity-2="API" data-source-line="49" data-uid="lnk18" id="link_APIUser_API"><path d="M420.41,82.11 C411.19,120.27 395.24,180.83 376,231.39 C365.66,258.55 353.487,283.1071 343.017,302.8871" fill="none" id="APIUser-to-API" style="stroke:#000000;stroke-width:1;stroke-dasharray:7,7;"/><polygon fill="#000000" points="340.21,308.19,347.9557,302.1069,342.5491,303.7709,340.8852,298.3643,340.21,308.19" style="stroke:#000000;stroke-width:1;"/><text fill="#000000" font-family="sans-serif" font-size="13" lengthAdjust="spacing" textLength="82.0752" x="411" y="204.6569">use with key</text></g><!--link WebApp to API--><g class="link" data-entity-1="WebApp" data-entity-2="API" data-source-line="51" data-uid="lnk19" id="link_WebApp_API"><path d="M285.27,231.77 C295.43,255.24 306.8182,281.563 315.9482,302.673" fill="none" id="WebApp-to-API" style="stroke:#000000;stroke-width:1;"/><polygon fill="#000000" points="318.33,308.18,318.4287,298.3316,316.3452,303.5908,311.086,301.5073,318.33,308.18" style="stroke:#000000;stroke-width:1;"/><text fill="#000000" font-family="sans-serif" font-size="13" lengthAdjust="spacing" textLength="33.4395" x="306" y="274.4569">REST</text></g><!--link WebApp to Auth0--><g class="link" data-entity-1="WebApp" data-entity-2="Auth0" data-source-line="52" data-uid="lnk20" id="link_WebApp_Auth0"><path d="M263.6,231.51 C257.79,252.93 250.06,282.32 244,308.39 C235.96,342.98 233.93,351.66 228,386.68 C225.675,400.4075 223.465,415.0188 221.4542,429.2473 C220.9515,432.8045 220.4613,436.3377 219.9848,439.8273 C219.8657,440.6996 220.5527,435.6236 220.4354,436.4902" fill="none" id="WebApp-to-Auth0" style="stroke:#000000;stroke-width:1;"/><polygon fill="#000000" points="219.63,442.4359,224.8018,434.0542,220.3011,437.4811,216.8742,432.9805,219.63,442.4359" style="stroke:#000000;stroke-width:1;"/><text fill="#000000" font-family="sans-serif" font-size="13" lengthAdjust="spacing" textLength="33.1538" x="245" y="336.0969">OIDC</text></g><!--link Portal to Fence--><g class="link" data-entity-1="Portal" data-entity-2="Fence" data-source-line="54" data-uid="lnk21" id="link_Portal_Fence"><path d="M80.52,223.64 C81.07,247.4 81.8032,278.5816 82.3432,302.2516" fill="none" id="Portal-to-Fence" style="stroke:#000000;stroke-width:1;"/><polygon fill="#000000" points="82.48,308.25,86.2737,299.1611,82.366,303.2513,78.2758,299.3436,82.48,308.25" style="stroke:#000000;stroke-width:1;"/></g><!--link Fence to Auth0--><g class="link" data-entity-1="Fence" data-entity-2="Auth0" data-source-line="55" data-uid="lnk22" id="link_Fence_Auth0"><path d="M95.1,355.06 C104.92,372.79 119.46,397.88 134,418.68 C149,440.14 167.535,462.9 182.6613,480.6663 C190.2244,489.5494 196.9353,497.1841 201.9261,502.7836 C202.238,503.1336 198.5459,499.0011 198.8442,499.335" fill="none" id="Fence-to-Auth0" style="stroke:#000000;stroke-width:1;"/><polygon fill="#000000" points="202.8415,503.8095,199.8285,494.4328,199.5104,500.0807,193.8625,499.7626,202.8415,503.8095" style="stroke:#000000;stroke-width:1;"/><text fill="#000000" font-family="sans-serif" font-size="13" lengthAdjust="spacing" textLength="33.1538" x="135" y="407.2469">OIDC</text></g><!--link API to Auth0--><g class="link" data-entity-1="API" data-entity-2="Auth0" data-source-line="57" data-uid="lnk23" id="link_API_Auth0"><path d="M296.81,353.85 C274.59,370.84 246.09,396.71 231,426.68 C228.86,430.9325 226.945,435.4184 225.2319,440.0189 C225.0178,440.594 224.8068,441.1708 224.5989,441.7492 C224.495,442.0384 226.3896,436.6704 226.2872,436.9603" fill="none" id="API-to-Auth0" style="stroke:#000000;stroke-width:1;"/><polygon fill="#000000" points="224.2894,442.618,231.0579,435.4634,225.9543,437.9033,223.5144,432.7996,224.2894,442.618" style="stroke:#000000;stroke-width:1;"/><text fill="#000000" font-family="sans-serif" font-size="13" lengthAdjust="spacing" textLength="33.1538" x="259" y="407.2469">OIDC</text></g><!--link API to RBAC--><g class="link" data-entity-1="API" data-entity-2="RBAC" data-source-line="58" data-uid="lnk24" id="link_API_RBAC"><path d="M322.77,355 C314.7,389.65 300.6614,449.8765 292.5914,484.5165" fill="none" id="API-to-RBAC" style="stroke:#000000;stroke-width:1;"/><polygon fill="#000000" points="291.23,490.36,297.1677,482.5023,292.3645,485.4904,289.3763,480.6872,291.23,490.36" style="stroke:#000000;stroke-width:1;"/><text fill="#000000" font-family="sans-serif" font-size="13" lengthAdjust="spacing" textLength="31.5034" x="340.4604" y="399.7469">push</text><text fill="#000000" font-family="sans-serif" font-size="13" lengthAdjust="spacing" textLength="82.4243" x="315" y="414.8797">entitlements</text></g><!--link API to Postgres--><g class="link" data-entity-1="API" data-entity-2="Postgres" data-source-line="59" data-uid="lnk25" id="link_API_Postgres"><path d="M359.24,334.82 C398.71,339.12 467.04,351.47 513,386.68 C548.64,413.99 569.3754,457.3141 580.2954,485.5441" fill="none" id="API-to-Postgres" style="stroke:#000000;stroke-width:1;"/><polygon fill="#000000" points="582.46,491.14,582.9437,481.303,580.6561,486.4767,575.4824,484.1892,582.46,491.14" style="stroke:#000000;stroke-width:1;"/></g><!--link API to EmailServer--><g class="link" data-entity-1="API" data-entity-2="EmailServer" data-source-line="60" data-uid="lnk26" id="link_API_EmailServer"><path d="M359.26,348.19 C375.13,357.5 393.62,370.63 406,386.68 C427.92,415.11 438.7712,449.1413 445.0112,476.4013" fill="none" id="API-to-EmailServer" style="stroke:#000000;stroke-width:1;"/><polygon fill="#000000" points="446.35,482.25,448.2409,472.5844,445.2343,477.3761,440.4426,474.3695,446.35,482.25" style="stroke:#000000;stroke-width:1;"/><text fill="#000000" font-family="sans-serif" font-size="13" lengthAdjust="spacing" textLength="35.8516" x="447.0137" y="399.7469">email</text><text fill="#000000" font-family="sans-serif" font-size="13" lengthAdjust="spacing" textLength="79.8789" x="425" y="414.8797">notifications</text></g><!--SRC=[ZPDDJ-Cm48Rl_XLMEBTRmOL5g5Bw0K82RTLqnOMBIIQ9LTSEjaEtMkr_tx6J4YVBjgXI5CyyyyxCMyTikLmnpNOqrbhjvqeeJMU2fLjYFb8pF1PQrJ9hyiybjn3aMMgLdYcTWHuAL04mK7daHMdlDJi4IgdQLKg2jA7QWkdj1rVrkJibxN2e0P9OqA3ieO8ExlSU50m7lPXChY-_NmPenYnxPGR-t_r8dDV2XjmUJflJ8qyxyrP33LzHQy3JOZa-liOCryoltI_0fChEANdahD02SbOBku5VDXQya3kqXSxn0PeGVz5eN5M2fmpZpD1eWNz55uewHgjth6cFguUVnYcu8UXw-PJGtuHsTu8-mokMqDjRcd1P21XLh02dGgVJ7eXAv0zfXUBQbXEl52BhMJntZ4VkGLxzGwoKjapuyIl_-YtFem5p1p85Z-JkBV9TZ_SE5OmjD9YsotB7k4X0uyP-XwVD2WV7lbZKsJKQJTj51y5c7d8qhGSspj7nU3nrozCR6jKum9xRacxX417IUkUAMc2zJ3PHB-wDmioFXyKSIre3NChlIPfjFqETv2VnOzYPxQ9LRSeNwRyX0UxIc9R9r5xw5Ll3mc1e6sg0Exv8gIpFqHpBbJJHNm00]--></g></svg>